<svg width="167" height="228" viewBox="0 0 167 228" fill="none" xmlns="http://www.w3.org/2000/svg">
<rect width="166.7" height="228" rx="8" fill="#3B5998"/>
<path d="M55.47 175.726V174.2H48.316V184H50.136V180.248H54.868V178.708H50.136V175.726H55.47ZM59.6856 176.44C58.4816 176.44 57.3196 176.748 56.5216 177.364L57.2076 178.638C57.7676 178.176 58.6356 177.896 59.4756 177.896C60.7216 177.896 61.3376 178.498 61.3376 179.52V179.632H59.4056C57.1376 179.632 56.2976 180.612 56.2976 181.858C56.2976 183.16 57.3756 184.098 59.0836 184.098C60.2036 184.098 61.0156 183.734 61.4356 183.09V184H63.0876V179.618C63.0876 177.462 61.8416 176.44 59.6856 176.44ZM59.4476 182.824C58.5516 182.824 58.0196 182.418 58.0196 181.788C58.0196 181.242 58.3416 180.794 59.5316 180.794H61.3376V181.662C61.0436 182.432 60.3016 182.824 59.4476 182.824ZM68.8319 184.098C70.2879 184.098 71.4499 183.468 72.0239 182.348L70.6799 181.564C70.2319 182.278 69.5599 182.6 68.8179 182.6C67.5299 182.6 66.5499 181.718 66.5499 180.262C66.5499 178.82 67.5299 177.924 68.8179 177.924C69.5599 177.924 70.2319 178.246 70.6799 178.96L72.0239 178.176C71.4499 177.042 70.2879 176.44 68.8319 176.44C66.4659 176.44 64.7859 178.022 64.7859 180.262C64.7859 182.502 66.4659 184.098 68.8319 184.098ZM80.4553 180.304C80.4553 177.966 78.8593 176.44 76.6753 176.44C74.4493 176.44 72.8113 178.036 72.8113 180.262C72.8113 182.488 74.4353 184.098 76.9413 184.098C78.2293 184.098 79.2793 183.678 79.9513 182.88L79.0133 181.802C78.4813 182.348 77.8233 182.614 76.9833 182.614C75.6813 182.614 74.7713 181.914 74.5613 180.822H80.4273C80.4413 180.654 80.4553 180.444 80.4553 180.304ZM76.6753 177.84C77.8233 177.84 78.6493 178.582 78.7893 179.66H74.5473C74.7153 178.568 75.5413 177.84 76.6753 177.84ZM86.2803 176.44C85.3283 176.44 84.4883 176.762 83.8863 177.434V173.612H82.1363V184H83.8023V183.034C84.3903 183.748 85.2583 184.098 86.2803 184.098C88.4643 184.098 90.0743 182.586 90.0743 180.262C90.0743 177.938 88.4643 176.44 86.2803 176.44ZM86.0843 182.6C84.8243 182.6 83.8583 181.69 83.8583 180.262C83.8583 178.834 84.8243 177.924 86.0843 177.924C87.3443 177.924 88.2963 178.834 88.2963 180.262C88.2963 181.69 87.3443 182.6 86.0843 182.6ZM95.0939 184.098C97.4179 184.098 99.0839 182.502 99.0839 180.262C99.0839 178.022 97.4179 176.44 95.0939 176.44C92.7979 176.44 91.1179 178.022 91.1179 180.262C91.1179 182.502 92.7979 184.098 95.0939 184.098ZM95.0939 182.6C93.8339 182.6 92.8819 181.69 92.8819 180.262C92.8819 178.834 93.8339 177.924 95.0939 177.924C96.3679 177.924 97.3199 178.834 97.3199 180.262C97.3199 181.69 96.3679 182.6 95.0939 182.6ZM104.117 184.098C106.441 184.098 108.107 182.502 108.107 180.262C108.107 178.022 106.441 176.44 104.117 176.44C101.821 176.44 100.141 178.022 100.141 180.262C100.141 182.502 101.821 184.098 104.117 184.098ZM104.117 182.6C102.857 182.6 101.905 181.69 101.905 180.262C101.905 178.834 102.857 177.924 104.117 177.924C105.391 177.924 106.343 178.834 106.343 180.262C106.343 181.69 105.391 182.6 104.117 182.6ZM115.423 184H117.551L114.135 179.66L117.257 176.524H115.157L111.531 179.884V173.612H109.781V184H111.531V182.026L112.833 180.794L115.423 184Z" fill="white"/>
<path d="M106.793 93.8941H91.7133V149H68.8662V93.8941H58V74.5276H68.8662V61.9954C68.8662 53.0334 73.134 39 91.9167 39L108.84 39.0706V57.869H96.5611C94.547 57.869 91.7148 58.8728 91.7148 63.1479V74.5457H108.789L106.793 93.8941Z" fill="white"/>
</svg>
