<svg width="81" height="104" viewBox="0 0 81 104" fill="none" xmlns="http://www.w3.org/2000/svg">
<rect x="0.699951" width="80" height="104" rx="8" fill="#FF0084"/>
<path d="M63.0978 40.9993C63.0978 46.5223 58.6247 50.9994 53.1017 50.9994C47.5706 50.9994 43.0975 46.5215 43.0975 40.9993C43.0975 35.4779 47.5706 31 53.1017 31C58.6247 31 63.0978 35.4787 63.0978 40.9993Z" fill="#F1F2F2"/>
<path d="M37.6986 40.9998C37.6986 46.5228 33.2255 50.9999 27.6944 50.9999C22.173 50.9999 17.7 46.522 17.7 40.9998C17.7 35.4784 22.173 31.0005 27.6944 31.0005C33.2255 31.0005 37.6986 35.4792 37.6986 40.9998Z" fill="#F1F2F2"/>
<path d="M29.96 76.908V75.6H23.828V84H25.388V80.784H29.444V79.464H25.388V76.908H29.96ZM31.3246 84H32.8246V75.096H31.3246V84ZM35.5493 76.536C36.1133 76.536 36.5093 76.128 36.5093 75.6C36.5093 75.108 36.1013 74.736 35.5493 74.736C34.9973 74.736 34.5893 75.132 34.5893 75.636C34.5893 76.14 34.9973 76.536 35.5493 76.536ZM34.7933 84H36.2933V77.592H34.7933V84ZM41.2021 84.084C42.4501 84.084 43.4461 83.544 43.9381 82.584L42.7861 81.912C42.4021 82.524 41.8261 82.8 41.1901 82.8C40.0861 82.8 39.2461 82.044 39.2461 80.796C39.2461 79.56 40.0861 78.792 41.1901 78.792C41.8261 78.792 42.4021 79.068 42.7861 79.68L43.9381 79.008C43.4461 78.036 42.4501 77.52 41.2021 77.52C39.1741 77.52 37.7341 78.876 37.7341 80.796C37.7341 82.716 39.1741 84.084 41.2021 84.084ZM50.0121 84H51.8361L48.9081 80.28L51.5841 77.592H49.7841L46.6761 80.472V75.096H45.1761V84H46.6761V82.308L47.7921 81.252L50.0121 84ZM54.1745 78.528V77.592H52.7465V84H54.2465V80.892C54.2465 79.584 54.9665 78.912 56.1065 78.912C56.2145 78.912 56.3225 78.924 56.4545 78.948V77.52C55.3865 77.52 54.6065 77.856 54.1745 78.528Z" fill="white"/>
</svg>
