<svg width="30" height="30" viewBox="0 0 30 30" fill="none" xmlns="http://www.w3.org/2000/svg">
<path d="M30 1V10C30 10.5527 29.5527 11 29 11C28.4473 11 28 10.5527 28 10V3.414L13.707 17.707C13.5118 17.9023 13.2557 18 13 18C12.7443 18 12.4882 17.9023 12.293 17.707C11.9023 17.3162 11.9023 16.6835 12.293 16.293L26.586 2H20C19.4473 2 19 1.55275 19 1C19 0.44725 19.4473 0 20 0H29C29.5527 0 30 0.44725 30 1ZM26 27V15C26 14.4473 25.5527 14 25 14C24.4473 14 24 14.4473 24 15V27C24 27.5518 23.5518 28 23 28H3C2.44825 28 2 27.5518 2 27V7C2 6.44825 2.44825 6 3 6H15C15.5527 6 16 5.55275 16 5C16 4.44725 15.5527 4 15 4H3C1.34575 4 0 5.34575 0 7V27C0 28.6542 1.34575 30 3 30H23C24.6542 30 26 28.6542 26 27Z" fill="white"/>
</svg>
