<svg width="81" height="104" viewBox="0 0 81 104" fill="none" xmlns="http://www.w3.org/2000/svg">
<rect x="0.699951" width="80" height="104" rx="8" fill="#55ACEE"/>
<path d="M59.6149 24.5515C58.2571 25.1536 56.7965 25.5609 55.2648 25.7427C56.8287 24.8057 58.0289 23.3231 58.5955 21.5535C57.132 22.4216 55.5105 23.0514 53.7861 23.3909C52.4045 21.9195 50.4362 21 48.2566 21C44.0747 21 40.683 24.3917 40.683 28.5736C40.683 29.1672 40.7502 29.745 40.8801 30.2996C34.5859 29.9839 29.0049 26.9689 25.2693 22.3855C24.6175 23.5038 24.2436 24.8057 24.2436 26.1934C24.2436 28.8204 25.5816 31.1395 27.6127 32.4973C26.3718 32.4583 25.2032 32.1178 24.1826 31.549C24.182 31.5812 24.182 31.6134 24.182 31.645C24.182 35.3146 26.7937 38.3753 30.2577 39.0706C29.6229 39.2446 28.9524 39.3366 28.2628 39.3366C27.7737 39.3366 27.2998 39.2897 26.8378 39.2016C27.8013 42.2098 30.5977 44.3996 33.9126 44.4612C31.3201 46.4928 28.0549 47.7032 24.5057 47.7032C23.8957 47.7032 23.2913 47.6676 22.7 47.597C26.0499 49.7467 30.0318 51 34.3085 51C48.2391 51 55.8572 39.4598 55.8572 29.4507C55.8572 29.1226 55.8499 28.7955 55.8352 28.4713C57.3162 27.4038 58.6 26.0703 59.6149 24.5515Z" fill="#F1F2F2"/>
<path d="M20.532 84H22.092V76.92H24.876V75.6H17.748V76.92H20.532V84ZM34.1683 77.592L32.4283 82.344L30.7003 77.592H29.4403L27.6763 82.32L25.9843 77.592H24.5683L26.9203 84H28.3603L30.0403 79.584L31.6963 84H33.1363L35.5003 77.592H34.1683ZM37.2876 76.536C37.8516 76.536 38.2476 76.128 38.2476 75.6C38.2476 75.108 37.8396 74.736 37.2876 74.736C36.7356 74.736 36.3276 75.132 36.3276 75.636C36.3276 76.14 36.7356 76.536 37.2876 76.536ZM36.5316 84H38.0316V77.592H36.5316V84ZM43.4324 82.584C43.2044 82.764 42.9044 82.848 42.5924 82.848C42.0164 82.848 41.7044 82.512 41.7044 81.888V78.84H43.4204V77.64H41.7044V76.176H40.2044V77.64H39.1484V78.84H40.2044V81.924C40.2044 83.34 41.0084 84.084 42.4124 84.084C42.9524 84.084 43.4924 83.94 43.8524 83.652L43.4324 82.584ZM48.366 82.584C48.138 82.764 47.838 82.848 47.526 82.848C46.95 82.848 46.638 82.512 46.638 81.888V78.84H48.354V77.64H46.638V76.176H45.138V77.64H44.082V78.84H45.138V81.924C45.138 83.34 45.942 84.084 47.346 84.084C47.886 84.084 48.426 83.94 48.786 83.652L48.366 82.584ZM55.833 80.832C55.833 78.828 54.465 77.52 52.593 77.52C50.685 77.52 49.281 78.888 49.281 80.796C49.281 82.704 50.673 84.084 52.821 84.084C53.925 84.084 54.825 83.724 55.401 83.04L54.597 82.116C54.141 82.584 53.577 82.812 52.857 82.812C51.741 82.812 50.961 82.212 50.781 81.276H55.809C55.821 81.132 55.833 80.952 55.833 80.832ZM52.593 78.72C53.577 78.72 54.285 79.356 54.405 80.28H50.769C50.913 79.344 51.621 78.72 52.593 78.72ZM58.7018 78.528V77.592H57.2738V84H58.7738V80.892C58.7738 79.584 59.4938 78.912 60.6338 78.912C60.7418 78.912 60.8498 78.924 60.9818 78.948V77.52C59.9138 77.52 59.1338 77.856 58.7018 78.528Z" fill="white"/>
</svg>
