<svg width="32" height="32" viewBox="0 0 32 32" fill="none" xmlns="http://www.w3.org/2000/svg">
<path d="M15.9996 0.300049C8.69315 0.300049 2.17475 5.55165 0.646349 12.7028C-0.117251 16.276 0.397149 20.0756 2.10075 23.3088C3.74035 26.4205 6.42835 28.9352 9.64435 30.3604C12.9896 31.8432 16.83 32.1016 20.346 31.0904C23.738 30.1152 26.7456 27.9748 28.7932 25.1016C33.0744 19.0948 32.502 10.6572 27.4652 5.27485C24.5132 2.12045 20.3204 0.300049 15.9996 0.300049ZM23.5312 16.8388L19.2512 21.222C18.1676 22.332 16.4548 20.6504 17.534 19.5456L19.6936 17.334H9.45915C8.73235 17.334 8.12595 16.7272 8.12595 16.0008C8.12595 15.2744 8.73275 14.6676 9.45915 14.6676H19.6424L17.44 12.4656C16.3456 11.3712 18.0424 9.67405 19.1368 10.7684L23.5212 15.1524C23.986 15.6168 23.9904 16.3688 23.5312 16.8388Z" fill="white"/>
</svg>
