<svg width="30" height="30" viewBox="0 0 30 30" fill="none" xmlns="http://www.w3.org/2000/svg">
<path d="M15 0.87001C8.4242 0.87001 2.55764 5.59645 1.18208 12.0325C0.49484 15.2484 0.957801 18.6681 2.49104 21.5779C3.96668 24.3784 6.38588 26.6417 9.28028 27.9244C12.291 29.2589 15.7473 29.4915 18.9117 28.5814C21.9645 27.7037 24.6714 25.7773 26.5142 23.1915C30.3673 17.7853 29.8521 10.1915 25.319 5.34733C22.6622 2.50837 18.8887 0.87001 15 0.87001ZM21.7784 15.7549L17.9264 19.6998C16.9512 20.6988 15.4096 19.1854 16.3809 18.191L18.3246 16.2006H9.1136C8.45948 16.2006 7.91372 15.6545 7.91372 15.0007C7.91372 14.347 8.45984 13.8009 9.1136 13.8009H18.2785L16.2963 11.8191C15.3114 10.8341 16.8385 9.30661 17.8234 10.2916L21.7694 14.2372C22.1877 14.6551 22.1917 15.3319 21.7784 15.7549Z" fill="#006435"/>
</svg>
