<svg width="32" height="32" viewBox="0 0 32 32" fill="none" xmlns="http://www.w3.org/2000/svg">
<path d="M15.6978 0C8.39139 0 1.87299 5.2516 0.344591 12.4028C-0.419009 15.976 0.0953917 19.7756 1.79899 23.0088C3.43859 26.1204 6.12659 28.6352 9.34259 30.0604C12.6878 31.5432 16.5282 31.8016 20.0442 30.7904C23.4362 29.8152 26.4438 27.6748 28.4914 24.8016C32.7726 18.7948 32.2002 10.3572 27.1634 4.9748C24.2114 1.8204 20.0186 0 15.6978 0ZM23.2294 16.5388L18.9494 20.922C17.8658 22.032 16.153 20.3504 17.2322 19.2456L19.3918 17.034H9.15739C8.43059 17.034 7.82419 16.4272 7.82419 15.7008C7.82419 14.9744 8.43099 14.3676 9.15739 14.3676H19.3406L17.1382 12.1656C16.0438 11.0712 17.7406 9.374 18.835 10.4684L23.2194 14.8524C23.6842 15.3168 23.6886 16.0688 23.2294 16.5388Z" fill="#0F0F0F"/>
</svg>
