<svg width="57" height="56" viewBox="0 0 57 56" fill="none" xmlns="http://www.w3.org/2000/svg">
<path d="M50.2703 0H6.03243C4.43253 0 2.89816 0.632141 1.76686 1.75736C0.635558 2.88258 0 4.4087 0 6L0 50C0 51.5913 0.635558 53.1174 1.76686 54.2426C2.89816 55.3679 4.43253 56 6.03243 56H50.2703C51.8702 56 53.4045 55.3679 54.5358 54.2426C55.6671 53.1174 56.3027 51.5913 56.3027 50V6C56.3027 4.4087 55.6671 2.88258 54.5358 1.75736C53.4045 0.632141 51.8702 0 50.2703 0ZM48.2104 38.4212L46.3253 46.5462C46.2295 46.9593 45.9959 47.3279 45.6624 47.592C45.329 47.856 44.9154 47.9998 44.4892 48C24.3811 48 8.04324 31.7862 8.04324 11.75C8.0582 11.3301 8.20828 10.926 8.47139 10.5972C8.7345 10.2685 9.09675 10.0324 9.50485 9.92375L17.6738 8.04875C17.8131 8.01944 17.9549 8.00312 18.0973 8C18.4618 8.0183 18.8148 8.13332 19.1196 8.33313C19.4243 8.53294 19.6697 8.81024 19.8304 9.13625L23.6006 17.8862C23.693 18.1222 23.7444 18.372 23.7527 18.625C23.722 19.18 23.4739 19.701 23.0615 20.0762L18.2996 23.9512C21.1849 30.0336 26.1067 34.929 32.222 37.7987L36.1179 33.0625C36.4952 32.6523 37.019 32.4055 37.577 32.375C37.8314 32.3831 38.0826 32.4343 38.3198 32.5262L47.1171 36.2762C47.445 36.4358 47.7239 36.6798 47.9248 36.983C48.1258 37.2862 48.2413 37.6373 48.2594 38C48.2569 38.1417 48.2405 38.2827 48.2104 38.4212Z" fill="white"/>
</svg>
