<svg width="30" height="30" viewBox="0 0 30 30" fill="none" xmlns="http://www.w3.org/2000/svg">
<path d="M15 0.869995C8.42423 0.869995 2.55767 5.59644 1.18211 12.0325C0.494865 15.2484 0.957826 18.668 2.49107 21.5779C3.96671 24.3784 6.38591 26.6417 9.28031 27.9244C12.291 29.2589 15.7473 29.4914 18.9117 28.5814C21.9645 27.7037 24.6714 25.7773 26.5142 23.1914C30.3673 17.7853 29.8521 10.1915 25.319 5.34732C22.6622 2.50836 18.8887 0.869995 15 0.869995ZM21.7784 15.7549L17.9264 19.6998C16.9512 20.6988 15.4097 19.1854 16.3809 18.191L18.3246 16.2006H9.11363C8.45951 16.2006 7.91375 15.6545 7.91375 15.0007C7.91375 14.347 8.45987 13.8008 9.11363 13.8008H18.2785L16.2963 11.819C15.3114 10.8341 16.8385 9.3066 17.8235 10.2916L21.7694 14.2372C22.1877 14.6551 22.1917 15.3319 21.7784 15.7549Z" fill="white"/>
</svg>
