<svg width="81" height="104" viewBox="0 0 81 104" fill="none" xmlns="http://www.w3.org/2000/svg">
<rect x="0.699951" width="80" height="104" rx="8" fill="#36B649"/>
<path d="M19.616 75.6L17.468 82.02L15.344 75.6H13.904L11.732 81.984L9.64395 75.6H8.02395L10.808 84H12.476L14.588 77.784L16.664 84H18.32L21.104 75.6H19.616ZM26.0426 77.52C25.1546 77.52 24.3986 77.808 23.9066 78.336V75.096H22.4066V84H23.9066V80.76C23.9066 79.476 24.6266 78.828 25.6946 78.828C26.6546 78.828 27.2186 79.38 27.2186 80.52V84H28.7186V80.328C28.7186 78.396 27.5786 77.52 26.0426 77.52ZM33.0695 77.52C32.0375 77.52 31.0415 77.784 30.3575 78.312L30.9455 79.404C31.4255 79.008 32.1695 78.768 32.8895 78.768C33.9575 78.768 34.4855 79.284 34.4855 80.16V80.256H32.8295C30.8855 80.256 30.1655 81.096 30.1655 82.164C30.1655 83.28 31.0895 84.084 32.5535 84.084C33.5135 84.084 34.2095 83.772 34.5695 83.22V84H35.9855V80.244C35.9855 78.396 34.9175 77.52 33.0695 77.52ZM32.8655 82.992C32.0975 82.992 31.6415 82.644 31.6415 82.104C31.6415 81.636 31.9175 81.252 32.9375 81.252H34.4855V81.996C34.2335 82.656 33.5975 82.992 32.8655 82.992ZM41.3425 82.584C41.1145 82.764 40.8145 82.848 40.5025 82.848C39.9265 82.848 39.6145 82.512 39.6145 81.888V78.84H41.3305V77.64H39.6145V76.176H38.1145V77.64H37.0585V78.84H38.1145V81.924C38.1145 83.34 38.9185 84.084 40.3225 84.084C40.8625 84.084 41.4025 83.94 41.7625 83.652L41.3425 82.584ZM44.9765 84.084C46.7765 84.084 47.8805 83.304 47.8805 82.104C47.8805 79.596 43.9205 80.748 43.9205 79.452C43.9205 79.032 44.3525 78.732 45.2645 78.732C45.8765 78.732 46.4885 78.852 47.1005 79.212L47.6765 78.072C47.1005 77.724 46.1285 77.52 45.2765 77.52C43.5485 77.52 42.4565 78.312 42.4565 79.524C42.4565 82.08 46.4165 80.928 46.4165 82.152C46.4165 82.596 46.0205 82.86 45.0725 82.86C44.2685 82.86 43.4045 82.596 42.8405 82.224L42.2645 83.364C42.8405 83.772 43.9085 84.084 44.9765 84.084ZM51.6202 77.52C50.5882 77.52 49.5922 77.784 48.9082 78.312L49.4962 79.404C49.9762 79.008 50.7202 78.768 51.4402 78.768C52.5082 78.768 53.0362 79.284 53.0362 80.16V80.256H51.3802C49.4362 80.256 48.7162 81.096 48.7162 82.164C48.7162 83.28 49.6402 84.084 51.1042 84.084C52.0642 84.084 52.7602 83.772 53.1202 83.22V84H54.5362V80.244C54.5362 78.396 53.4682 77.52 51.6202 77.52ZM51.4162 82.992C50.6482 82.992 50.1922 82.644 50.1922 82.104C50.1922 81.636 50.4682 81.252 51.4882 81.252H53.0362V81.996C52.7842 82.656 52.1482 82.992 51.4162 82.992ZM60.0133 77.52C59.1373 77.52 58.3933 77.82 57.8893 78.432V77.592H56.4613V86.328H57.9613V83.22C58.4773 83.808 59.1973 84.084 60.0133 84.084C61.8853 84.084 63.2653 82.788 63.2653 80.796C63.2653 78.816 61.8853 77.52 60.0133 77.52ZM59.8453 82.8C58.7653 82.8 57.9373 82.02 57.9373 80.796C57.9373 79.572 58.7653 78.792 59.8453 78.792C60.9253 78.792 61.7413 79.572 61.7413 80.796C61.7413 82.02 60.9253 82.8 59.8453 82.8ZM68.2399 77.52C67.3639 77.52 66.6199 77.82 66.1159 78.432V77.592H64.6879V86.328H66.1879V83.22C66.7039 83.808 67.4239 84.084 68.2399 84.084C70.1119 84.084 71.4919 82.788 71.4919 80.796C71.4919 78.816 70.1119 77.52 68.2399 77.52ZM68.0719 82.8C66.9919 82.8 66.1639 82.02 66.1639 80.796C66.1639 79.572 66.9919 78.792 68.0719 78.792C69.1519 78.792 69.9679 79.572 69.9679 80.796C69.9679 82.02 69.1519 82.8 68.0719 82.8Z" fill="white"/>
<path d="M40.5598 21C32.3528 21 25.7 27.6529 25.7 35.8599C25.7 38.6338 26.4611 41.2261 27.7828 43.4459L25.9101 51L33.356 48.8567C35.4898 50.0414 37.9452 50.7197 40.5598 50.7197C48.7668 50.7197 55.4197 44.0669 55.4197 35.8599C55.4197 27.6529 48.7668 21 40.5598 21ZM40.7286 48.2548C38.1331 48.2548 35.7254 47.449 33.7382 46.0796L29.4993 47.3025L30.5821 42.9331C29.2031 40.9395 28.391 38.5223 28.391 35.9172C28.391 29.1019 33.9133 23.5796 40.7286 23.5796C47.5439 23.5796 53.0662 29.1019 53.0662 35.9172C53.0662 42.7293 47.5407 48.2548 40.7286 48.2548Z" fill="url(#paint0_radial)"/>
<path d="M36.8029 34.6847C36.9749 34.4872 37.1468 34.2898 37.3188 34.0891C37.6086 33.7515 38.0417 33.4299 38.064 32.9458C38.0863 32.4808 37.9207 32.0191 37.7551 31.5987C37.65 31.328 37.5417 31.0573 37.4366 30.7866C37.2487 30.2929 37.0067 29.6019 36.7328 29.3121C36.3634 28.9203 35.7296 28.8375 35.2296 29.0796C35.2296 29.0796 32.3124 30.4808 33.2105 33.2866C33.2105 33.2866 34.9494 41.1942 43.6978 42.8184C43.6978 42.8184 46.8379 43.2675 47.6787 41.3598C47.8602 40.949 47.9844 40.3694 47.9526 39.9235C47.9239 39.4904 47.615 39.2006 47.2583 38.9936C46.7965 38.7293 46.3889 38.484 45.8634 38.2229C45.408 38 44.8825 37.6656 44.3602 37.8121C43.9749 37.9171 43.701 38.2707 43.4398 38.5477C43.0991 38.9076 42.7519 39.2643 42.408 39.621C42.4112 39.6178 37.9812 37.9904 36.8029 34.6847Z" fill="url(#paint1_radial)"/>
<defs>
<radialGradient id="paint0_radial" cx="0" cy="0" r="1" gradientUnits="userSpaceOnUse" gradientTransform="translate(34.6715 51.8409) scale(32.1113)">
<stop offset="0.2194" stop-color="#E7E7E7"/>
<stop offset="0.8827" stop-color="#FCFCFC"/>
</radialGradient>
<radialGradient id="paint1_radial" cx="0" cy="0" r="1" gradientUnits="userSpaceOnUse" gradientTransform="translate(35.0117 45.1142) scale(14.3654)">
<stop offset="0.2194" stop-color="#E7E7E7"/>
<stop offset="0.8827" stop-color="white"/>
</radialGradient>
</defs>
</svg>
