<svg width="81" height="104" viewBox="0 0 81 104" fill="none" xmlns="http://www.w3.org/2000/svg">
<rect x="0.699951" width="80" height="104" rx="8" fill="#C2181E"/>
<path d="M21.74 75.6H20.204L17.72 79.692L15.26 75.6H13.592L16.892 81.06V84H18.452V81.036L21.74 75.6ZM24.7827 84.084C26.7747 84.084 28.2027 82.716 28.2027 80.796C28.2027 78.876 26.7747 77.52 24.7827 77.52C22.8147 77.52 21.3747 78.876 21.3747 80.796C21.3747 82.716 22.8147 84.084 24.7827 84.084ZM24.7827 82.8C23.7027 82.8 22.8867 82.02 22.8867 80.796C22.8867 79.572 23.7027 78.792 24.7827 78.792C25.8747 78.792 26.6907 79.572 26.6907 80.796C26.6907 82.02 25.8747 82.8 24.7827 82.8ZM34.3411 77.592V80.832C34.3411 82.116 33.6331 82.764 32.5891 82.764C31.6411 82.764 31.0891 82.212 31.0891 81.048V77.592H29.5891V81.252C29.5891 83.184 30.7051 84.084 32.3491 84.084C33.1771 84.084 33.9331 83.772 34.4131 83.184V84H35.8411V77.592H34.3411ZM41.237 82.584C41.009 82.764 40.709 82.848 40.397 82.848C39.821 82.848 39.509 82.512 39.509 81.888V78.84H41.225V77.64H39.509V76.176H38.009V77.64H36.953V78.84H38.009V81.924C38.009 83.34 38.813 84.084 40.217 84.084C40.757 84.084 41.297 83.94 41.657 83.652L41.237 82.584ZM47.595 77.592V80.832C47.595 82.116 46.887 82.764 45.843 82.764C44.895 82.764 44.343 82.212 44.343 81.048V77.592H42.843V81.252C42.843 83.184 43.959 84.084 45.603 84.084C46.431 84.084 47.187 83.772 47.667 83.184V84H49.095V77.592H47.595ZM54.611 77.52C53.795 77.52 53.075 77.796 52.559 78.372V75.096H51.059V84H52.487V83.172C52.991 83.784 53.735 84.084 54.611 84.084C56.483 84.084 57.863 82.788 57.863 80.796C57.863 78.804 56.483 77.52 54.611 77.52ZM54.443 82.8C53.363 82.8 52.535 82.02 52.535 80.796C52.535 79.572 53.363 78.792 54.443 78.792C55.523 78.792 56.339 79.572 56.339 80.796C56.339 82.02 55.523 82.8 54.443 82.8ZM65.3095 80.832C65.3095 78.828 63.9415 77.52 62.0695 77.52C60.1615 77.52 58.7575 78.888 58.7575 80.796C58.7575 82.704 60.1495 84.084 62.2975 84.084C63.4015 84.084 64.3015 83.724 64.8775 83.04L64.0735 82.116C63.6175 82.584 63.0535 82.812 62.3335 82.812C61.2175 82.812 60.4375 82.212 60.2575 81.276H65.2855C65.2975 81.132 65.3095 80.952 65.3095 80.832ZM62.0695 78.72C63.0535 78.72 63.7615 79.356 63.8815 80.28H60.2455C60.3895 79.344 61.0975 78.72 62.0695 78.72Z" fill="white"/>
<path d="M25.7 21L54.4419 36.003L25.7 51V21Z" fill="white"/>
<path d="M25.7 21.2275L50.6949 37.9524L54.4419 36.0031L27.919 22.1642L25.7 21.2002V21.2275Z" fill="#E8E0E0"/>
</svg>
